<?xml version="1.0" encoding="UTF-8" standalone="no"?>
<svg
   version="1.0"
   width="362.65421pt"
   height="364.22873pt"
   viewBox="0 0 362.65421 364.22873"
   preserveAspectRatio="xMidYMid"
   id="svg128"
   xmlns="http://www.w3.org/2000/svg"
   xmlns:svg="http://www.w3.org/2000/svg">
  <defs
     id="defs132" />
  <metadata
     id="metadata84">
Created by potrace 1.16, written by Peter Selinger 2001-2019
</metadata>
  <g
     transform="matrix(0.1,0,0,-0.1,-356.17293,737.52393)"
     fill="#000000"
     stroke="none"
     id="g126">
    <path
       d="m 5275,7370 c -280,-30 -529,-184 -692,-428 -157,-234 -205,-507 -139,-785 7,-31 11,-59 7,-61 -3,-2 -28,-7 -56,-11 -121,-17 -288,-86 -410,-168 -78,-53 -200,-175 -255,-256 -57,-86 -114,-209 -140,-306 -32,-121 -38,-303 -12,-425 71,-345 332,-625 676,-724 123,-36 270,-50 386,-38 52,6 97,8 99,6 3,-2 -7,-17 -21,-32 -47,-49 -62,-92 -62,-167 0,-83 21,-132 82,-187 74,-67 126,-71 312,-22 209,55 435,55 650,0 52,-13 114,-27 136,-31 52,-8 119,9 162,42 39,29 89,113 97,165 9,52 -18,137 -61,194 l -36,47 34,-6 c 194,-35 420,-4 604,82 280,132 475,375 536,671 26,122 20,304 -12,425 -74,275 -264,506 -525,637 -80,41 -207,83 -280,93 -27,4 -53,9 -56,11 -4,2 0,31 8,65 80,346 -19,689 -270,939 -201,200 -484,300 -762,270 z m 245,-124 c 415,-74 725,-476 696,-902 -7,-97 -36,-229 -67,-302 -11,-24 -19,-45 -19,-47 0,-1 39,-6 88,-9 359,-28 661,-238 791,-551 50,-118 64,-209 58,-360 -6,-175 -38,-273 -130,-410 -158,-234 -402,-368 -692,-382 -187,-9 -362,33 -508,121 -31,19 -57,33 -57,31 0,-3 20,-38 44,-79 53,-89 112,-171 177,-242 57,-63 79,-103 79,-141 0,-59 -64,-123 -122,-123 -13,0 -55,9 -93,20 -237,69 -543,69 -780,0 -85,-24 -118,-25 -155,-4 -84,50 -77,168 15,244 41,34 225,300 225,326 0,3 -13,-4 -29,-15 -51,-36 -173,-90 -256,-112 -116,-32 -355,-32 -470,-1 -424,117 -693,508 -631,919 27,182 99,331 225,465 167,179 369,274 622,293 l 87,7 -29,82 c -95,274 -73,536 67,767 186,308 523,466 864,405 z"
       id="path90" />
    <path
       d="m 5273,7111 c -50,-32 -68,-66 -68,-136 0,-95 35,-145 152,-215 120,-72 186,-127 251,-207 133,-164 191,-380 159,-590 l -8,-53 h 44 c 23,0 59,-9 80,-19 l 37,-19 35,58 c 89,147 135,306 135,469 0,58 -7,134 -15,168 -47,201 -205,402 -388,492 -76,38 -221,80 -233,68 -3,-3 -1,-14 5,-25 18,-34 13,-101 -10,-139 -40,-65 -115,-82 -168,-37 -31,26 -39,60 -25,98 10,25 34,19 34,-8 0,-65 74,-75 105,-15 21,39 19,64 -7,93 -31,36 -75,42 -115,17 z m 451,-182 c 33,-26 36,-79 6,-109 -30,-30 -83,-27 -109,6 -24,30 -26,43 -10,78 21,46 72,57 113,25 z m 219,-199 c 40,-45 38,-101 -7,-146 -56,-56 -135,-44 -171,26 -19,37 -19,63 0,100 35,67 127,77 178,20 z m 25,-306 c 31,-35 28,-67 -10,-99 -23,-20 -38,-25 -57,-20 -52,12 -79,78 -48,117 34,43 77,43 115,2 z m -34,-273 c 23,-25 6,-61 -29,-61 -33,0 -49,30 -29,58 19,27 36,28 58,3 z"
       id="path92" />
    <path
       d="m 5109,7081 c -96,-41 -168,-92 -246,-174 -95,-102 -167,-231 -188,-337 -6,-34 -6,-34 16,10 53,104 196,202 334,230 58,12 181,8 221,-7 13,-4 9,4 -13,27 -65,67 -89,163 -59,234 24,57 26,56 -65,17 z"
       id="path94" />
    <path
       d="m 5035,6779 c -124,-21 -236,-94 -280,-184 -32,-65 -43,-167 -26,-233 25,-91 119,-154 197,-133 100,27 135,141 68,221 -20,24 -34,30 -63,30 -43,0 -61,-16 -85,-74 -15,-36 -18,-38 -32,-24 -26,26 -28,88 -4,126 22,35 88,72 130,72 68,0 159,-75 179,-147 40,-144 -40,-273 -185,-297 -95,-16 -204,48 -250,149 -28,58 -29,52 -10,-47 25,-132 92,-279 170,-378 20,-25 31,-46 26,-48 -5,-2 -39,6 -77,18 -97,31 -254,38 -363,16 -318,-65 -551,-289 -615,-594 -8,-37 -15,-93 -15,-125 v -59 l 31,26 c 24,21 41,26 83,26 68,0 116,-30 133,-83 23,-68 -21,-132 -85,-125 -34,4 -35,25 -2,41 30,15 39,67 16,86 -28,23 -79,24 -107,2 -36,-28 -43,-64 -23,-107 21,-44 59,-64 124,-64 106,0 172,59 216,194 54,165 122,276 227,372 126,114 279,181 439,191 76,5 88,8 82,22 -30,75 2,169 71,208 48,27 75,28 120,7 42,-20 65,-54 67,-99 3,-69 -76,-111 -125,-67 -19,17 -20,17 -3,-15 9,-18 25,-37 35,-43 28,-15 86,-12 128,5 62,26 63,29 37,93 -80,194 36,365 247,365 67,0 114,-24 143,-72 25,-44 8,-55 -48,-30 -95,43 -201,5 -227,-82 -25,-82 53,-239 167,-337 47,-41 143,-94 194,-107 23,-6 23,-5 -5,13 -40,25 -94,88 -111,128 -35,84 -4,203 66,253 45,31 50,51 50,197 0,119 -27,239 -66,296 -38,54 -111,88 -192,88 -61,0 -66,-2 -103,-39 -27,-27 -39,-47 -39,-68 0,-72 70,-101 80,-33 7,48 38,52 74,10 30,-36 33,-68 11,-111 -36,-68 -133,-89 -210,-46 -108,61 -115,234 -13,323 74,65 194,82 277,39 31,-16 32,-16 22,3 -17,32 -134,134 -195,171 -114,68 -244,98 -351,80 z M 4710,5766 c 6,-8 10,-25 8,-38 -4,-30 -46,-38 -65,-12 -17,23 -16,29 3,48 19,20 38,20 54,2 z m -237,-37 c 24,-11 47,-47 47,-73 0,-7 -9,-25 -21,-40 -26,-33 -79,-36 -109,-6 -30,30 -27,83 6,109 30,24 43,26 77,10 z m -210,-119 c 30,-24 50,-78 42,-113 -4,-14 -20,-38 -36,-53 -38,-36 -104,-40 -139,-9 -83,73 -42,195 65,195 27,0 51,-7 68,-20 z m -156,-282 c 38,-35 29,-89 -18,-114 -53,-27 -109,8 -109,68 0,62 80,91 127,46 z"
       id="path96" />
    <path
       d="m 6050,5854 c -14,-3 -42,-10 -62,-15 -35,-9 -37,-11 -28,-35 24,-62 1,-132 -50,-159 -45,-24 -93,-19 -124,11 -32,32 -33,70 -4,101 33,35 -3,31 -44,-6 -29,-26 -32,-34 -32,-82 0,-71 32,-142 76,-169 27,-17 46,-20 111,-18 47,2 76,-1 74,-7 -5,-13 -104,-44 -145,-44 l -33,-1 35,-34 c 50,-51 70,-111 64,-198 -7,-113 -62,-196 -139,-213 -50,-11 -57,8 -19,51 43,50 60,93 60,155 0,44 -4,55 -33,84 -101,101 -352,53 -515,-99 -78,-74 -101,-111 -38,-63 78,60 180,71 264,28 53,-27 82,-63 102,-123 17,-52 19,-54 101,-95 96,-49 228,-83 318,-83 104,0 178,48 222,145 44,95 -1,195 -87,195 -58,0 -71,-50 -19,-70 54,-21 14,-80 -55,-80 -89,0 -138,104 -93,197 20,43 80,88 128,97 54,10 134,-17 178,-59 58,-56 72,-90 72,-175 0,-83 -19,-130 -74,-189 -27,-29 -28,-31 -8,-26 73,20 209,99 274,160 123,113 174,219 175,360 1,142 -44,241 -139,305 -89,58 -186,74 -258,41 -160,-72 -122,-281 50,-281 41,0 91,41 101,82 5,22 -2,35 -37,73 -35,37 -40,48 -28,56 46,29 131,-24 150,-94 15,-57 3,-102 -39,-149 -47,-52 -86,-68 -164,-68 -80,1 -149,36 -193,98 -28,41 -30,50 -30,132 0,82 2,91 30,131 39,55 110,100 172,107 42,5 45,6 23,15 -27,10 -250,19 -290,11 z"
       id="path98" />
    <path
       d="m 6681,5632 c 45,-87 65,-200 54,-290 -7,-60 -37,-154 -60,-189 -8,-13 -22,-34 -31,-48 l -16,-25 47,21 c 73,32 169,24 231,-20 l 47,-33 -6,99 c -6,111 -32,206 -84,304 -40,77 -123,181 -181,227 l -40,32 z"
       id="path100" />
    <path
       d="m 5277,5589 c -83,-84 -210,-85 -299,-2 -26,25 -27,25 -111,14 -136,-18 -297,-80 -347,-133 -87,-92 -86,-245 1,-310 53,-40 144,-15 137,36 -2,16 -11,21 -33,22 -63,1 -74,37 -26,85 51,50 140,29 177,-42 23,-45 16,-135 -15,-177 -70,-99 -241,-98 -327,0 -48,54 -67,115 -62,194 l 4,66 -23,-28 c -103,-126 -167,-335 -144,-472 25,-144 124,-279 236,-321 136,-51 298,-3 346,103 23,51 24,88 2,133 -46,97 -198,96 -238,-1 -27,-63 7,-109 85,-118 42,-5 36,-33 -11,-52 -52,-21 -91,-10 -139,39 -27,28 -34,44 -38,88 -16,191 244,294 380,150 36,-37 68,-110 68,-154 0,-103 -78,-208 -186,-249 -80,-30 -184,-25 -266,13 -154,70 -278,262 -278,430 v 60 l -30,-41 c -58,-80 -164,-118 -248,-89 l -43,15 32,-57 c 77,-136 182,-237 323,-308 107,-54 201,-75 341,-75 148,0 241,22 375,89 79,39 110,62 185,138 96,96 164,205 172,275 5,44 27,78 59,90 39,15 53,12 85,-19 l 29,-29 v 29 c 0,46 -45,87 -110,101 -72,14 -122,4 -165,-33 -32,-29 -39,-44 -72,-158 -7,-28 -16,0 -14,51 1,47 18,134 36,179 6,15 -1,16 -59,12 -87,-7 -142,14 -195,74 -44,49 -81,135 -81,186 0,18 9,51 19,74 34,73 91,81 70,9 -14,-48 -11,-77 15,-133 55,-116 180,-108 308,20 83,83 161,230 135,256 -15,15 -16,14 -60,-30 z"
       id="path102" />
    <path
       d="m 5400,5475 c -9,-36 -15,-65 -15,-65 1,0 20,9 43,20 23,11 58,24 79,28 l 37,8 -59,34 c -33,19 -62,36 -65,37 -3,2 -12,-26 -20,-62 z"
       id="path104" />
    <path
       d="m 6667,5076 c -20,-8 -43,-18 -50,-23 -6,-6 -48,-38 -92,-73 -44,-35 -116,-80 -160,-101 -125,-60 -190,-74 -345,-74 -156,0 -232,18 -358,86 -41,21 -75,39 -78,39 -2,0 -4,-8 -4,-17 0,-21 -36,-83 -57,-98 -21,-16 50,-117 144,-205 140,-131 325,-201 533,-202 185,-1 332,47 477,156 58,44 145,141 172,194 11,20 10,22 -17,22 -59,0 -142,83 -142,142 0,61 44,107 101,108 22,0 42,-7 52,-18 27,-30 21,-41 -18,-35 -43,7 -65,-9 -65,-49 0,-58 74,-98 129,-68 28,14 47,93 31,129 -34,83 -150,123 -253,87 z m -84,-308 c 40,-47 7,-118 -55,-118 -60,0 -95,59 -67,111 22,42 89,46 122,7 z m -803,7 c 29,-35 -26,-85 -58,-53 -13,13 -16,50 -5,61 12,12 50,7 63,-8 z m 239,-50 c 47,-24 56,-78 19,-112 -33,-29 -50,-33 -86,-18 -54,23 -55,105 -2,132 32,16 35,16 69,-2 z m 324,-35 c 21,-24 27,-40 27,-76 0,-39 -5,-51 -31,-75 -60,-56 -153,-32 -179,46 -13,40 -6,70 24,104 46,51 113,51 159,1 z"
       id="path106" />
    <path
       d="m 5310,4779 c 0,-44 -33,-181 -60,-250 -62,-157 -163,-324 -282,-466 -38,-46 -65,-83 -60,-83 4,0 31,6 58,14 232,68 520,72 774,10 56,-13 103,-24 106,-24 2,0 -23,33 -57,73 -167,197 -293,435 -335,633 l -17,82 -39,6 c -22,4 -50,14 -64,22 -24,16 -24,16 -24,-17 z m 120,-229 c 11,-11 20,-26 20,-34 0,-21 -40,-66 -59,-66 -29,0 -61,30 -61,57 0,57 61,82 100,43 z m 5,-221 c 31,-27 35,-37 35,-78 -1,-49 -10,-67 -50,-94 -54,-37 -139,-7 -160,57 -36,109 89,191 175,115 z"
       id="path108" />
  </g>
</svg>
