<?xml version="1.0" encoding="UTF-8" standalone="no"?>
<svg
   version="1.1"
   id="Icons"
   viewBox="0 0 11.90591 13.799999"
   xml:space="preserve"
   height="55.199997"
   width="47.623642"
   sodipodi:docname="Cards card game games.svg"
   xmlns:inkscape="http://www.inkscape.org/namespaces/inkscape"
   xmlns:sodipodi="http://sodipodi.sourceforge.net/DTD/sodipodi-0.dtd"
   xmlns="http://www.w3.org/2000/svg"
   xmlns:svg="http://www.w3.org/2000/svg"><defs
   id="defs1246" /><sodipodi:namedview
   id="namedview1244"
   pagecolor="#ffffff"
   bordercolor="#000000"
   borderopacity="0.25"
   inkscape:showpageshadow="2"
   inkscape:pageopacity="0.0"
   inkscape:pagecheckerboard="0"
   inkscape:deskcolor="#d1d1d1"
   showgrid="false" />
<style
   type="text/css"
   id="style1225">
	.st0{fill:none;stroke:#000000;stroke-width:2;stroke-linecap:round;stroke-linejoin:round;stroke-miterlimit:10;}
</style>




<line
   class="st0"
   x1="5"
   y1="12.799999"
   x2="7"
   y2="12.799999"
   id="line1235"
   inkscape:export-filename="../Projects/SWE-Beta-Summer-2025/p5-cards/assets/suits/line1235.svg"
   inkscape:export-xdpi="96"
   inkscape:export-ydpi="96" />
<line
   class="st0"
   x1="6"
   y1="8.7999992"
   x2="6"
   y2="12.799999"
   id="line1237" />
<path
   class="st0"
   d="m 8.5,4.7999992 c -0.1,0 -0.2,0 -0.4,0 0.2,-0.4 0.4,-0.8 0.4,-1.3 0,-1.4 -1.1,-2.49999996 -2.5,-2.49999996 -1.4,0 -2.5,1.09999996 -2.5,2.49999996 0,0.5 0.1,0.9 0.4,1.3 -0.1,0 -0.2,0 -0.4,0 -1.4,0 -2.5,1.1 -2.5,2.5 0,1.4 1.1,2.5 2.5,2.5 1.2,0 2.2,-0.9 2.4,-2 H 6 c 0.2,1.1 1.2,2 2.4,2 1.4,0 2.5,-1.1 2.5,-2.5 0.1,-1.4 -1,-2.5 -2.4,-2.5 z"
   id="path1239" />

</svg>
