<?xml version="1.0" encoding="UTF-8" standalone="no"?>
<svg
   version="1.0"
   width="283.91296pt"
   height="367.98883pt"
   viewBox="0 0 283.91296 367.98883"
   preserveAspectRatio="xMidYMid"
   id="svg128"
   sodipodi:docname="_MConverter.eu_vintage-suits-cards_625341-580.svg"
   xmlns:inkscape="http://www.inkscape.org/namespaces/inkscape"
   xmlns:sodipodi="http://sodipodi.sourceforge.net/DTD/sodipodi-0.dtd"
   xmlns="http://www.w3.org/2000/svg"
   xmlns:svg="http://www.w3.org/2000/svg">
  <defs
     id="defs132" />
  <sodipodi:namedview
     id="namedview130"
     pagecolor="#ffffff"
     bordercolor="#000000"
     borderopacity="0.25"
     inkscape:showpageshadow="2"
     inkscape:pageopacity="0.0"
     inkscape:pagecheckerboard="0"
     inkscape:deskcolor="#d1d1d1"
     inkscape:document-units="pt"
     showgrid="false" />
  <metadata
     id="metadata84">
Created by potrace 1.16, written by Peter Selinger 2001-2019
</metadata>
  <g
     transform="matrix(0.1,0,0,-0.1,-397.08702,368.99968)"
     fill="#000000"
     stroke="none"
     id="g126">
    <path
       d="m 5320,3679 c -56,-22 -89,-61 -155,-181 -441,-797 -592,-1001 -1072,-1448 -112,-105 -131,-141 -119,-229 9,-64 33,-97 158,-208 403,-361 736,-811 1023,-1383 36,-71 80,-145 100,-164 73,-73 196,-75 273,-3 19,18 73,108 127,212 220,418 420,719 662,995 101,115 195,209 392,394 81,76 101,112 101,185 0,86 -20,117 -158,246 -427,398 -736,815 -1012,1365 -35,69 -74,139 -87,157 -46,60 -160,91 -233,62 z m 138,-105 c 12,-8 50,-70 83,-137 153,-305 361,-639 543,-872 129,-165 243,-290 435,-477 207,-201 217,-216 187,-280 -10,-20 -64,-77 -121,-128 -180,-159 -390,-388 -547,-595 -139,-184 -346,-525 -481,-790 -39,-77 -82,-150 -96,-162 -28,-27 -95,-31 -128,-8 -12,8 -62,94 -112,190 -319,611 -600,984 -1059,1405 -85,79 -92,88 -92,123 0,50 13,73 69,122 205,180 404,387 542,565 154,198 267,377 474,752 80,145 157,273 171,286 30,27 98,30 132,6 z"
       id="path114"
       inkscape:export-filename="diamond_detail.svg"
       inkscape:export-xdpi="96"
       inkscape:export-ydpi="96" />
    <path
       d="m 5250,3223 c -265,-478 -409,-691 -646,-958 l -63,-71 67,33 c 128,64 301,68 421,10 l 47,-22 -23,34 c -67,98 -50,222 41,295 32,27 46,31 95,31 h 58 l -15,35 c -29,71 3,146 77,177 41,18 81,10 111,-22 39,-42 27,-105 -25,-125 -19,-8 -19,-9 3,-9 63,-2 112,58 112,135 0,117 -70,184 -192,184 -21,0 -38,4 -38,10 0,17 49,23 150,18 87,-4 106,-9 172,-41 40,-19 88,-45 106,-57 30,-21 28,-16 -38,95 -69,114 -189,332 -247,448 l -29,59 z m 190,-13 c 41,-41 7,-120 -52,-120 -27,0 -68,45 -68,74 0,56 79,87 120,46 z"
       id="path116" />
    <path
       d="m 5524,2894 c 117,-120 91,-313 -51,-376 -40,-18 -44,-23 -69,-101 -34,-103 -46,-309 -22,-367 34,-81 108,-136 196,-146 39,-5 53,-2 82,18 67,46 78,129 18,136 -23,3 -27,-1 -30,-25 -3,-24 -8,-28 -33,-28 -25,0 -33,7 -48,38 -18,36 -18,38 0,74 22,46 75,83 117,83 120,-1 205,-131 161,-246 -38,-100 -119,-156 -226,-155 -58,0 -139,26 -153,50 -4,6 -12,11 -17,11 -24,0 54,-112 136,-196 103,-105 176,-146 292,-165 123,-20 279,25 345,100 102,116 111,288 19,369 -33,29 -61,36 -117,29 -81,-9 -127,-82 -104,-167 12,-46 42,-70 86,-70 26,0 40,9 67,41 41,50 57,45 57,-16 0,-54 -37,-97 -98,-116 -111,-33 -222,69 -222,203 1,228 292,312 422,123 38,-56 51,-114 46,-193 -15,-198 -201,-342 -446,-342 -80,0 -187,25 -220,52 -7,6 0,-13 15,-43 65,-124 14,-272 -108,-308 -22,-7 -54,-9 -70,-6 l -29,7 15,-36 c 19,-46 19,-70 -2,-113 -30,-64 -102,-90 -162,-58 -54,27 -62,106 -14,134 16,9 16,10 1,11 -27,0 -63,-19 -77,-42 -7,-12 -16,-47 -18,-78 -8,-82 21,-144 79,-170 24,-11 57,-20 73,-20 39,0 75,-10 75,-20 0,-5 -26,-12 -57,-16 -116,-14 -273,29 -369,102 l -41,32 85,-141 c 47,-77 131,-228 188,-335 72,-137 104,-188 108,-175 13,40 181,353 267,496 238,397 512,736 807,1001 67,60 122,113 122,117 0,5 -21,28 -47,51 -187,167 -376,367 -528,559 -54,68 -102,128 -106,133 -5,5 -3,-8 3,-30 14,-52 5,-141 -20,-191 -26,-50 -78,-97 -129,-114 -61,-22 -170,-17 -221,10 -46,23 -82,71 -82,109 0,29 15,28 64,-5 34,-24 49,-28 112,-28 62,0 76,3 98,24 86,81 29,308 -114,451 -36,36 -81,74 -100,84 l -35,19 z M 5450,583 c 51,-65 -36,-149 -98,-95 -35,29 -38,67 -8,96 34,35 78,35 106,-1 z"
       id="path118" />
    <path
       d="m 5123,2500 c -39,-24 -62,-66 -70,-129 -8,-73 26,-141 111,-216 79,-70 139,-145 191,-235 20,-36 34,-56 30,-45 -49,134 -49,138 -50,295 0,149 1,158 31,243 27,74 29,87 15,87 -9,0 -27,3 -40,7 -21,5 -22,4 -12,-15 39,-72 -21,-181 -108,-198 -83,-17 -151,69 -105,134 22,31 34,27 34,-11 0,-18 5,-38 12,-45 21,-21 65,-14 87,14 65,83 -33,171 -126,114 z"
       id="path120" />
    <path
       d="m 4704,2226 c -108,-34 -178,-95 -217,-188 -71,-169 34,-345 177,-298 57,18 86,61 86,127 0,47 -4,59 -29,84 -48,48 -93,35 -142,-40 -21,-34 -39,-19 -39,33 0,131 180,172 271,63 57,-68 63,-180 14,-263 -70,-120 -240,-145 -342,-51 -71,65 -88,106 -88,212 0,77 4,98 26,143 l 26,53 -81,-78 c -44,-43 -106,-100 -136,-126 -53,-46 -54,-49 -35,-62 43,-31 275,-255 372,-360 78,-84 211,-242 287,-342 1,-1 -2,23 -8,55 -20,124 25,225 123,275 45,22 68,27 128,27 88,0 128,-15 171,-64 53,-60 38,-120 -18,-73 -81,68 -219,56 -248,-21 -19,-50 -21,-89 -7,-154 28,-135 121,-268 239,-343 l 31,-20 -33,42 c -100,128 -75,288 54,353 51,25 52,25 80,115 26,81 29,104 29,225 0,130 -1,136 -27,177 -76,116 -253,140 -304,42 -19,-38 -18,-63 6,-84 23,-21 50,-14 50,13 0,29 25,46 48,33 70,-37 53,-147 -28,-181 -40,-16 -115,-8 -149,17 -58,44 -90,119 -77,187 10,52 63,123 115,154 39,23 57,27 122,27 68,0 81,-3 127,-32 29,-18 52,-30 52,-28 0,2 -15,30 -34,62 -78,130 -214,246 -334,283 -74,23 -194,26 -258,6 z"
       id="path122" />
    <path
       d="m 5395,1835 c 61,-164 58,-402 -6,-551 l -17,-42 38,-10 c 38,-9 38,-9 29,15 -39,102 57,218 158,191 62,-16 92,-87 57,-136 -22,-32 -34,-27 -34,12 0,64 -51,86 -95,41 -37,-36 -34,-86 7,-120 25,-21 38,-25 62,-21 98,20 148,129 110,238 -15,41 -40,72 -125,157 -62,63 -123,135 -148,176 -24,39 -40,61 -36,50 z"
       id="path124" />
  </g>
</svg>
