<?xml version="1.0" encoding="UTF-8" standalone="no"?>
<svg
   version="1.0"
   width="336.83774pt"
   height="323.72562pt"
   viewBox="0 0 336.83774 323.72562"
   preserveAspectRatio="xMidYMid"
   id="svg128"
   xmlns="http://www.w3.org/2000/svg"
   xmlns:svg="http://www.w3.org/2000/svg">
  <defs
     id="defs132" />
  <metadata
     id="metadata84">
Created by potrace 1.16, written by Peter Selinger 2001-2019
</metadata>
  <g
     transform="matrix(0.1,0,0,-0.1,-25.08726,738.70064)"
     fill="#000000"
     stroke="none"
     id="g126">
    <path
       d="m 1136,7380 c -445,-71 -791,-420 -871,-878 -19,-110 -19,-308 1,-412 54,-289 226,-575 544,-905 69,-72 215,-225 325,-340 368,-388 637,-648 697,-675 59,-27 156,-27 208,0 68,35 375,337 834,820 49,52 140,147 200,210 200,208 323,375 420,573 62,126 89,203 111,319 19,102 19,301 0,409 -72,416 -375,757 -757,854 -299,75 -626,16 -848,-154 -54,-41 -68,-48 -81,-38 -9,7 -38,29 -65,50 -73,56 -200,115 -309,142 -111,28 -310,40 -409,25 z m 382,-134 c 146,-39 254,-100 357,-205 l 60,-59 60,60 c 154,155 342,229 585,230 163,1 272,-23 403,-88 177,-88 325,-240 422,-434 123,-245 138,-544 41,-810 -57,-153 -209,-390 -359,-557 -286,-319 -1055,-1095 -1103,-1113 -61,-24 -90,-14 -171,59 -163,145 -952,956 -1089,1121 -153,183 -289,427 -336,600 -32,124 -33,366 0,495 87,345 363,632 677,706 125,29 334,26 453,-5 z"
       id="path86" />
    <path
       d="m 1180,7139 c -320,-38 -571,-274 -666,-625 -29,-106 -27,-341 4,-448 44,-153 160,-359 292,-521 114,-139 934,-986 1072,-1106 l 57,-50 207,203 c 113,112 290,291 392,398 102,107 240,251 306,320 67,69 146,154 177,190 159,185 287,404 334,575 21,79 30,271 17,360 -40,256 -202,499 -412,618 -114,64 -297,104 -423,92 -258,-25 -409,-111 -554,-312 -25,-35 -46,-63 -48,-63 -2,0 -24,29 -49,63 -68,96 -186,202 -270,241 -119,57 -289,82 -436,65 z m 1385,-94 c 14,-13 25,-33 25,-43 0,-32 -38,-72 -70,-72 -65,0 -96,74 -50,120 27,27 66,25 95,-5 z m -1190,-20 c 48,-47 19,-115 -49,-115 -64,0 -90,79 -40,119 35,27 59,26 89,-4 z m 1472,-11 c 39,-25 56,-60 50,-105 -19,-143 -227,-134 -227,10 0,48 20,79 63,100 43,21 74,20 114,-5 z m -1717,-24 c 109,-78 11,-248 -113,-196 -46,19 -72,59 -71,110 3,85 113,137 184,86 z m 1173,-144 c 44,-18 94,-77 108,-128 13,-49 6,-115 -16,-158 l -16,-31 53,30 c 182,103 446,68 564,-75 108,-131 106,-307 -5,-407 -105,-95 -277,-61 -343,67 -25,48 -29,146 -9,186 19,35 61,79 93,96 82,43 198,-21 198,-108 0,-42 -19,-43 -59,-4 -40,40 -58,43 -100,21 -34,-17 -41,-33 -41,-88 0,-47 27,-100 61,-117 32,-18 124,-8 150,16 87,78 76,231 -24,340 -52,57 -94,78 -189,94 -139,22 -261,-23 -379,-140 -78,-77 -109,-123 -153,-222 l -26,-58 45,34 c 59,45 104,59 180,54 49,-3 72,-10 105,-33 93,-65 125,-192 67,-269 -74,-96 -198,-97 -244,-2 -20,43 -11,80 24,103 25,17 27,17 37,-1 29,-47 34,-51 53,-40 26,16 28,65 3,96 -65,84 -218,40 -276,-79 -25,-50 -26,-61 -20,-137 7,-94 34,-194 76,-277 25,-48 34,-57 69,-68 48,-14 105,-61 128,-105 10,-19 17,-56 17,-96 0,-55 -5,-75 -32,-125 l -33,-60 60,59 c 150,149 206,400 110,492 -52,49 -158,35 -218,-30 -33,-35 -51,-33 -51,5 0,84 79,140 205,146 101,5 154,-19 202,-90 146,-217 -59,-579 -367,-647 -56,-12 -150,-13 -150,-1 0,4 29,16 64,25 71,20 101,42 122,92 39,92 -12,215 -88,213 -30,0 -31,-1 -10,-9 22,-9 42,-46 42,-76 0,-9 -13,-29 -29,-45 -48,-47 -135,-35 -175,25 -20,31 -21,107 -1,145 19,38 68,78 103,86 l 29,6 -35,66 c -53,100 -73,175 -79,298 -4,90 -2,126 16,197 25,107 83,223 150,303 102,122 130,201 102,288 -29,88 -144,130 -190,71 -27,-34 -27,-64 0,-98 17,-22 28,-27 58,-24 34,3 36,5 37,40 1,48 9,56 34,33 43,-39 12,-126 -50,-140 -69,-15 -139,30 -161,104 -10,33 -8,45 9,84 34,77 114,107 195,73 z m -622,-19 c 117,-78 65,-257 -74,-257 -74,0 -121,81 -81,138 24,35 46,29 39,-10 -8,-48 6,-63 57,-59 27,2 58,42 58,75 0,45 -35,76 -85,76 -133,0 -182,-201 -76,-315 148,-160 221,-338 221,-538 0,-138 -29,-244 -107,-389 -2,-3 12,-11 31,-18 46,-15 101,-77 110,-124 15,-81 -41,-156 -115,-156 -52,0 -78,14 -94,53 -16,38 -4,80 28,95 l 22,11 h -22 c -56,2 -95,-40 -106,-114 -15,-99 30,-163 133,-192 84,-23 76,-37 -17,-30 -99,7 -161,28 -245,83 -87,58 -149,128 -195,221 -31,63 -37,87 -41,156 -5,106 9,158 59,212 54,59 109,79 196,73 106,-8 178,-55 196,-126 6,-26 0,-52 -13,-52 -4,0 -21,14 -39,30 -39,38 -72,51 -132,52 -90,2 -132,-54 -131,-173 1,-118 54,-240 145,-336 57,-61 77,-69 42,-18 -84,125 -31,291 110,337 47,15 71,53 110,172 19,56 29,111 32,176 4,86 3,99 -19,139 -29,53 -101,106 -158,116 -77,13 -155,-53 -134,-114 14,-39 49,-40 62,-2 13,38 34,39 61,5 31,-39 27,-78 -12,-120 -43,-47 -94,-55 -156,-22 -81,42 -112,114 -86,203 45,158 247,205 383,91 l 32,-28 -11,28 c -50,133 -150,265 -249,328 -106,68 -263,87 -377,45 -146,-54 -232,-233 -172,-357 27,-55 69,-82 131,-82 85,0 141,76 118,162 -20,74 -82,88 -137,33 -55,-55 -81,-28 -49,50 17,39 77,75 127,75 74,0 150,-77 165,-166 20,-127 -90,-254 -220,-254 -181,0 -287,215 -195,395 100,194 392,264 605,145 l 50,-28 -19,56 c -21,64 -18,112 12,170 48,94 156,130 232,79 z m 1422,-27 c 30,-33 37,-92 14,-120 -38,-49 -87,-61 -138,-34 -72,37 -69,139 6,179 40,21 84,12 118,-25 z M 883,6787 c 20,-16 30,-34 34,-64 5,-39 2,-46 -30,-78 -48,-48 -95,-49 -143,-1 -38,38 -43,70 -19,116 19,38 41,49 90,50 27,0 49,-8 68,-23 z m 1082,-143 c 26,-11 46,-59 35,-88 -27,-72 -133,-53 -133,24 0,51 48,83 98,64 z m 1235,-134 c 11,-11 20,-23 20,-28 0,-18 -33,-52 -50,-52 -24,0 -50,26 -50,50 0,22 26,50 46,50 8,0 23,-9 34,-20 z M 710,6490 c 25,-25 25,-32 2,-60 -14,-18 -25,-21 -45,-16 -38,9 -48,53 -17,78 28,23 35,23 60,-2 z m 1300,-115 c 89,-46 104,-176 29,-239 -49,-42 -100,-52 -154,-32 -119,46 -139,193 -35,264 39,26 116,30 160,7 z m -27,-426 c 38,-19 57,-51 57,-97 0,-36 -5,-49 -31,-73 -69,-65 -179,-20 -179,73 1,82 81,134 153,97 z m -9,-380 c 32,-25 34,-64 4,-96 -42,-45 -118,-15 -118,47 0,34 34,70 66,70 12,0 33,-9 48,-21 z m -6,-311 c 17,-14 15,-63 -4,-82 -21,-22 -60,-20 -84,4 -27,27 -25,46 5,76 26,25 52,26 83,2 z m -54,-290 32,-33 25,28 c 18,22 36,30 72,34 43,5 49,3 81,-29 42,-42 52,-77 37,-129 -13,-42 -33,-65 -153,-172 l -76,-68 -84,86 c -138,142 -157,208 -83,282 27,27 41,33 75,33 34,0 48,-6 74,-32 z"
       id="path88" />
  </g>
</svg>
