<?xml version="1.0" encoding="UTF-8" standalone="no"?>
<svg
   version="1.0"
   width="344.7489pt"
   height="373.85538pt"
   viewBox="0 0 344.7489 373.85538"
   preserveAspectRatio="xMidYMid"
   id="svg128"
   sodipodi:docname="_MConverter.eu_vintage-suits-cards_625341-580.svg"
   xmlns:inkscape="http://www.inkscape.org/namespaces/inkscape"
   xmlns:sodipodi="http://sodipodi.sourceforge.net/DTD/sodipodi-0.dtd"
   xmlns="http://www.w3.org/2000/svg"
   xmlns:svg="http://www.w3.org/2000/svg">
  <defs
     id="defs132" />
  <sodipodi:namedview
     id="namedview130"
     pagecolor="#ffffff"
     bordercolor="#000000"
     borderopacity="0.25"
     inkscape:showpageshadow="2"
     inkscape:pageopacity="0.0"
     inkscape:pagecheckerboard="0"
     inkscape:deskcolor="#d1d1d1"
     inkscape:document-units="pt"
     showgrid="false" />
  <metadata
     id="metadata84">
Created by potrace 1.16, written by Peter Selinger 2001-2019
</metadata>
  <g
     transform="matrix(0.1,0,0,-0.1,-20.826659,389.94771)"
     fill="#000000"
     stroke="none"
     id="g126">
    <path
       d="M 1845,3885 C 1815,3870 1282,3324 1051,3072 559,2533 297,2125 225,1785 173,1537 245,1246 402,1075 626,831 970,748 1398,837 c 40,8 76,12 79,10 7,-8 -62,-107 -170,-243 -115,-146 -127,-168 -127,-239 0,-89 44,-157 122,-190 49,-20 92,-19 215,5 226,44 581,46 803,5 154,-29 209,-30 260,-3 64,33 103,93 108,166 6,79 -7,104 -128,257 -100,126 -185,245 -176,245 2,0 56,-9 120,-20 164,-28 312,-35 426,-20 365,47 621,261 702,587 32,129 32,325 -2,443 -60,217 -203,480 -401,741 -181,239 -390,473 -785,883 -148,154 -293,306 -323,338 -29,32 -71,68 -92,78 -46,24 -140,26 -184,5 z m 253,-207 c 59,-62 188,-196 287,-298 584,-602 881,-972 1044,-1302 125,-254 154,-419 112,-626 -44,-213 -163,-367 -356,-463 -131,-65 -215,-82 -395,-82 -164,-1 -279,15 -484,68 -55,13 -102,23 -104,20 -8,-7 27,-86 70,-160 52,-88 89,-141 204,-286 50,-64 97,-125 103,-137 25,-46 4,-116 -43,-141 -27,-15 -58,-13 -204,14 -219,39 -578,39 -795,-1 -45,-8 -108,-17 -139,-21 -54,-5 -59,-4 -87,25 -25,25 -31,39 -31,75 0,42 7,54 105,177 58,73 130,169 160,214 55,84 131,233 123,242 -3,2 -68,-11 -146,-30 -369,-91 -630,-83 -841,24 -181,92 -294,228 -347,420 -14,50 -19,99 -18,210 0,137 2,150 33,245 116,348 384,723 923,1295 411,435 600,625 630,636 55,19 83,2 196,-118 z"
       id="path110"
       inkscape:export-filename="spade_detail.svg"
       inkscape:export-xdpi="96"
       inkscape:export-ydpi="96" />
    <path
       d="m 1913,3676 c -4,-8 -150,-162 -324,-342 -341,-354 -478,-504 -628,-684 -261,-313 -427,-578 -502,-801 -60,-178 -50,-374 27,-529 76,-152 234,-259 434,-296 179,-32 386,-8 731,86 81,22 150,40 153,40 12,0 6,-58 -14,-134 -37,-145 -166,-358 -365,-600 -38,-47 -39,-49 -15,-43 135,34 234,41 525,41 290,0 391,-8 523,-41 19,-5 5,19 -70,113 -214,268 -304,440 -331,626 -4,26 -2,38 6,38 7,0 67,-16 135,-35 464,-130 739,-136 957,-22 85,44 194,156 233,237 44,93 66,213 59,324 -17,305 -281,729 -807,1301 -150,163 -704,735 -712,735 -4,0 -11,-6 -15,-14 z m 105,-246 c 156,-96 33,-330 -132,-251 -55,27 -92,92 -82,144 20,104 129,159 214,107 z m -324,-339 c 4,-5 -17,-14 -46,-20 -104,-23 -148,-72 -148,-166 0,-82 37,-139 98,-151 35,-7 46,10 12,19 -31,8 -45,55 -27,93 48,100 207,45 207,-72 0,-25 -7,-58 -15,-73 -19,-38 -68,-78 -103,-86 l -29,-6 38,-77 c 21,-42 46,-106 56,-142 24,-88 24,-271 0,-360 -26,-98 -90,-217 -167,-310 -87,-106 -108,-159 -91,-236 29,-129 167,-179 213,-78 25,53 -33,124 -85,105 -23,-9 -27,-16 -27,-51 0,-22 -3,-40 -7,-40 -18,0 -43,37 -43,64 0,44 24,73 69,87 108,32 202,-107 140,-208 -74,-119 -255,-63 -290,91 -11,49 -10,62 7,114 l 20,59 -66,-34 c -158,-80 -361,-65 -494,35 -133,102 -169,280 -83,409 87,130 281,130 361,0 52,-85 48,-187 -10,-255 -82,-96 -228,-71 -250,42 -10,59 9,68 50,23 74,-81 172,-15 146,99 -14,60 -49,87 -120,92 -60,4 -61,4 -99,-36 -68,-71 -72,-166 -14,-274 56,-104 156,-154 303,-152 62,1 100,7 142,23 135,52 266,193 329,355 l 20,48 -33,-27 c -86,-73 -196,-86 -285,-35 -131,75 -146,247 -28,320 68,42 158,21 189,-44 21,-44 13,-81 -22,-104 -24,-15 -26,-15 -36,2 -29,47 -34,51 -53,40 -10,-6 -19,-25 -21,-45 -2,-28 3,-40 28,-64 27,-25 39,-30 83,-30 66,0 136,39 175,97 25,38 27,50 27,137 -1,106 -24,201 -76,303 -25,50 -34,59 -70,68 -149,40 -193,240 -80,364 29,33 14,27 -41,-16 -20,-16 -57,-59 -81,-96 -142,-216 -123,-452 36,-452 46,0 92,18 133,53 45,38 58,35 51,-10 -8,-47 -68,-107 -123,-122 -51,-14 -132,-14 -175,0 -149,50 -198,254 -104,439 74,145 230,263 385,290 65,11 118,11 124,1 z m 690,-33 c 128,-42 252,-155 314,-285 35,-73 37,-84 37,-173 0,-79 -4,-102 -22,-136 -27,-51 -80,-98 -129,-114 -50,-17 -163,-8 -211,17 -46,24 -83,75 -83,114 0,36 19,37 51,3 47,-52 139,-70 198,-39 82,42 87,210 12,369 -33,67 -101,151 -154,188 l -32,22 22,-25 c 37,-41 63,-110 63,-169 0,-101 -53,-173 -147,-200 -38,-12 -44,-18 -71,-79 -45,-99 -62,-161 -71,-251 -11,-101 0,-146 47,-201 65,-76 159,-100 223,-56 42,28 57,66 41,102 -16,35 -47,33 -61,-5 -12,-37 -33,-38 -60,-4 -25,32 -26,55 -6,94 22,42 53,60 106,60 86,0 159,-74 159,-161 0,-60 -10,-87 -52,-134 -43,-50 -99,-75 -169,-75 -67,0 -115,18 -165,62 -36,31 -37,32 -29,8 36,-118 165,-286 266,-347 239,-143 540,-25 557,219 8,109 -54,188 -149,188 -79,0 -136,-65 -126,-143 12,-88 86,-115 147,-52 38,39 50,37 50,-6 0,-67 -57,-119 -130,-119 -49,0 -108,39 -138,90 -22,36 -27,57 -26,105 2,130 86,215 214,215 79,0 117,-17 167,-74 126,-143 56,-382 -138,-471 -147,-67 -338,-55 -462,30 l -35,23 19,-41 c 24,-54 24,-139 0,-193 -41,-91 -157,-132 -231,-82 -73,49 -87,134 -33,199 55,65 132,72 178,17 29,-34 32,-64 9,-96 -24,-35 -44,-28 -37,12 4,29 1,37 -20,51 -23,15 -28,15 -55,1 -50,-26 -58,-90 -17,-131 67,-68 183,11 193,130 6,75 -9,109 -94,216 -128,160 -184,308 -184,488 0,136 33,260 96,362 l 23,36 -39,12 c -51,15 -97,62 -111,113 -31,116 94,215 180,142 23,-19 31,-34 31,-59 0,-34 -5,-41 -45,-70 -20,-14 -20,-14 3,-15 83,-1 140,105 113,207 -17,62 -62,95 -163,117 -16,4 -28,11 -28,17 0,17 132,2 204,-23 z m -403,-69 c 26,-26 21,-57 -13,-82 l -28,-21 -27,21 c -35,25 -40,56 -14,82 27,27 55,27 82,0 z m -8,-280 c 50,-23 55,-93 8,-118 -74,-40 -140,56 -75,108 31,24 35,25 67,10 z m 35,-309 c 61,-37 69,-105 18,-156 -69,-69 -178,-27 -178,70 0,85 86,131 160,86 z m 20,-350 c 46,-29 72,-76 72,-134 0,-44 -4,-53 -44,-92 -41,-41 -47,-44 -98,-44 -96,0 -164,68 -155,157 11,106 134,168 225,113 z M 718,1744 c 12,-8 22,-24 22,-34 0,-17 -34,-50 -52,-50 -14,0 -38,32 -38,50 0,18 24,50 38,50 4,0 18,-7 30,-16 z m 2502,-29 c 17,-20 5,-62 -20,-70 -44,-14 -80,41 -48,73 17,17 53,15 68,-3 z m -1217,-33 c 43,-37 4,-116 -55,-110 -71,7 -89,96 -26,123 34,14 53,11 81,-13 z M 876,1545 c 63,-26 78,-109 28,-159 -31,-30 -70,-38 -110,-21 -81,34 -87,129 -11,175 38,24 47,24 93,5 z m 2225,-25 c 30,-17 52,-68 45,-106 -7,-35 -43,-70 -81,-80 -38,-9 -94,21 -111,61 -17,43 -11,76 23,110 28,27 87,34 124,15 z m -1091,-52 c 102,-53 106,-188 8,-248 -62,-38 -153,-17 -193,43 -45,70 -18,169 58,206 53,27 72,26 127,-1 z m -854,-122 c 28,-28 34,-42 34,-76 0,-34 -6,-48 -34,-76 -40,-40 -92,-46 -142,-15 -96,58 -46,201 70,201 30,0 45,-7 72,-34 z m 1717,-16 c 41,-35 52,-78 33,-124 -19,-46 -52,-66 -107,-66 -40,0 -53,5 -78,31 -26,25 -31,39 -31,76 0,38 5,50 34,79 46,46 100,48 149,4 z m -1492,-81 c 49,-26 41,-97 -13,-120 -25,-10 -33,-9 -56,8 -71,52 -8,154 69,112 z m 1193,-30 c 32,-25 34,-64 4,-96 -42,-45 -111,-15 -111,47 0,22 7,39 22,52 30,23 52,23 85,-3 z M 1984,908 c 23,-32 20,-54 -11,-77 -41,-33 -93,-7 -93,45 0,52 74,75 104,32 z m -6,-204 c 59,-41 64,-119 11,-170 -24,-23 -39,-29 -75,-29 -39,0 -50,5 -75,33 -64,72 -20,182 75,182 23,0 52,-7 64,-16 z"
       id="path112" />
  </g>
</svg>
