<svg xmlns="http://www.w3.org/2000/svg" viewBox="14.0005 15 22 21">
	<path d="M 18 15 A 1.0001 1.0001 0 0 0 17.1055 16.4473 L 19.1055 20.4395 A 1.0001 1.0001 0 0 0 19.291 20.6973 C 18.4998 21.5766 18 22.7204 18 24 L 18 28 C 15.7321 28 13.8869 29.9262 14.0059 32.2129 C 14.1207 34.4059 16.0467 36 18.1699 36 L 18.9863 36 L 19 36 C 22.8543 36 26 32.8543 26 29 L 26 24.0723 C 26 22.3599 27.3677 20.9922 29.0801 20.9922 L 30 20.9922 L 30.4648 20.9922 L 33.541 25.6113 L 32.5527 26.1055 A 1.0001 1.0001 0 0 0 32 27 L 32 30.5352 C 31.7088 30.8377 30.5075 32 28 32 A 1.0001 1.0001 0 1 0 28 34 C 31.6603 34 33.752 31.6582 33.752 31.6582 A 1.0001 1.0001 0 0 0 34 31 L 34 27.6172 L 35.4473 26.8945 A 1.0001 1.0001 0 0 0 35.832 25.4453 L 32.1348 19.8906 L 33.8906 16.4551 A 1.0001 1.0001 0 0 0 33 15 L 18 15 z M 19.6191 17 L 31.3652 17 L 30.3477 18.9922 L 30 18.9922 L 20.6172 18.9922 L 19.6191 17 z M 23.0801 20.9922 L 25.0723 20.9922 C 24.4103 21.8502 24 22.9114 24 24.0723 L 24 29 C 24 31.7737 21.7737 34 19 34 L 18.1699 34 C 17.0451 34 16.0571 33.1624 16.002 32.1094 C 15.9409 30.9361 16.8479 30 18 30 L 19 30 A 1.0001 1.0001 0 0 0 20 29 L 20 24 C 20 22.2876 21.3464 20.9922 23.0801 20.9922 z M 30 23 A 1 1 0 0 0 29 24 A 1 1 0 0 0 30 25 A 1 1 0 0 0 31 24 A 1 1 0 0 0 30 23 z" stroke="#FF0000" stroke-width="0.1" fill="#000000"/>
</svg>