<svg xmlns="http://www.w3.org/2000/svg" viewBox="13.9004 9.89071 22.2 26.21">
	<path d="M30 23a1 1 0 011 1 1 1 0 01-1 1 1 1 0 01-1-1 1 1 0 011-1Zm-6.9199-2.0078C21.3464 20.9922 20 22.2876 20 24v5a1.0001 1.0001 0 01-1 1H18c-1.1521 0-2.0591.9361-1.998 2.1094C16.0571 33.1624 17.0451 34 18.1699 34H19c2.7737 0 5-2.2263 5-5V24.0723c0-1.1609.4103-2.2221 1.0723-3.0801H23.0801ZM19.6191 17l.9981 1.9922H30h.3477L31.3652 17H19.6191ZM18 15H33a1.0001 1.0001 0 01.8906 1.4551l-1.7558 3.4355 3.6972 5.5547a1.0001 1.0001 0 01-.3847 1.4492L34 27.6172V31a1.0001 1.0001 0 01-.248.6582S31.6603 34 28 34a1.0001 1.0001 0 110-2c2.5075 0 3.7088-1.1623 4-1.4648V30c-5-1-4-4-3-3s3 1 3 0a1.0001 1.0001 0 01.5527-.8945l.9883-.4942-3.0762-4.6191H30h-.9199C27.3677 20.9922 26 22.3599 26 24.0723V29c0 3.8543-3.1457 7-7 7h-.0137-.8164c-2.1232 0-4.0492-1.5941-4.164-3.7871C13.8869 29.9262 15.7321 28 18 28V24c0-1.2796.4998-2.4234 1.291-3.3027a1.0001 1.0001 0 01-.1855-.2578l-2-3.9922A1.0001 1.0001 0 0118 15h3l3.5-4.5a1.5 2 0 012 0L30 15H28l-2.5-3.25L23 15" stroke="#FF0000" stroke-width="0.1" fill="#000000"/>
</svg>