<svg xmlns="http://www.w3.org/2000/svg" viewBox="13.9004 10.8996 22.2 25.2">
	<path d="M 26.035156 11 A 1.0001 1.0001 0 0 0 25.9375 11.001953 A 1.0001 1.0001 0 0 0 25.027344 11.767578 C 25.027344 11.767578 24.804333 12.679639 24.371094 13.556641 C 24.154474 13.995141 23.883887 14.410614 23.626953 14.666016 C 23.370019 14.921417 23.186479 15 23 15 C 21.603042 15 20.902344 13.570313 20.902344 13.570312 A 1.0001 1.0001 0 0 0 19 14 L 19 21 A 1.0001 1.0001 0 0 0 19.001953 21.042969 C 18.381347 21.868792 18 22.88277 18 24 L 18 28 C 15.732105 28 13.886899 29.926214 14.005859 32.212891 C 14.12071 34.405865 16.046743 36 18.169922 36 L 19 36 A 1.0001 1.0001 0 0 0 19.357422 35.927734 C 23.037615 35.730451 26 32.727753 26 29 L 26 24.072266 C 26 22.36462 27.362626 21.005592 29.068359 20.998047 A 1.0001 1.0001 0 0 0 29.126953 20.992188 L 31.380859 20.998047 L 33.658203 25.552734 L 32.552734 26.105469 A 1.0001 1.0001 0 0 0 32.537109 26.113281 C 31.785681 26.428784 31.02739 27.371703 30.777344 27.783203 C 30.326344 28.333203 29.875469 28.332031 29.605469 28.332031 C 29.322469 28.332031 29.267766 28.058906 29.259766 28.003906 C 29.255766 27.974906 29.223922 27.719156 29.419922 27.660156 C 29.578922 27.613156 29.677297 27.456969 29.654297 27.292969 C 29.630297 27.128969 29.490219 27.007813 29.324219 27.007812 C 28.631219 27.007812 27.998047 27.560016 27.998047 28.166016 C 27.999047 28.848016 28.490031 30 30.332031 30 C 30.92225 30 31.493922 29.885279 32 29.699219 L 32 30.535156 C 31.708844 30.837749 30.507489 32 28 32 A 1.0001 1.0001 0 1 0 28 34 C 31.660256 34 33.751953 31.658203 33.751953 31.658203 A 1.0001 1.0001 0 0 0 34 31 L 34 27.617188 L 35.447266 26.894531 A 1.0001 1.0001 0 0 0 35.894531 25.552734 L 33 19.763672 L 33 14 A 1.0001 1.0001 0 0 0 31.097656 13.570312 C 31.097656 13.570312 30.396958 15 29 15 C 28.813521 15 28.629981 14.92142 28.373047 14.666016 C 28.116113 14.410614 27.845526 13.995141 27.628906 13.556641 C 27.195667 12.679639 26.972656 11.767578 26.972656 11.767578 A 1.0001 1.0001 0 0 0 26.035156 11 z M 26 14.681641 C 26.256859 15.165355 26.537645 15.661275 26.962891 16.083984 C 27.460457 16.578583 28.162479 17 29 17 C 29.814835 17 30.449694 16.74113 31 16.414062 L 31 18.998047 L 29.082031 18.992188 A 1.0001 1.0001 0 0 0 29.080078 18.992188 C 29.064798 18.992188 29.052369 19.001753 29.037109 19.001953 A 1.0001 1.0001 0 0 0 29 19 L 23.080078 19 C 22.340432 19 21.638846 19.167357 21 19.451172 L 21 16.414062 C 21.550306 16.74113 22.185165 17 23 17 C 23.837521 17 24.539543 16.578583 25.037109 16.083984 C 25.462355 15.661275 25.743141 15.165355 26 14.681641 z M 23.080078 21 L 25.144531 21 C 24.468965 21.86281 24 22.898233 24 24.072266 L 24 29 C 24 31.773666 21.773666 34 19 34 L 18.169922 34 C 17.045101 34 16.057102 33.162401 16.001953 32.109375 C 15.940913 30.936052 16.847895 30 18 30 L 19 30 A 1.0001 1.0001 0 0 0 20 29 L 20 24 C 20 22.287613 21.344019 21 23.080078 21 z M 30 23 A 1 1 0 0 0 29 24 A 1 1 0 0 0 30 25 A 1 1 0 0 0 31 24 A 1 1 0 0 0 30 23 z" stroke="#FF0000" stroke-width="0.1" fill="#000000"/>
</svg>