<svg xmlns="http://www.w3.org/2000/svg" viewBox="13.9031 11.8993 22.2 24.2">
	<path d="M 26.962891 12 A 1.0001 1.0001 0 0 0 26.046875 12.697266 C 26.046875 12.697266 25.919832 13.081708 25.677734 13.449219 C 25.435636 13.81673 25.1941 14 25 14 C 24.1234 14 23.84375 13.464844 23.84375 13.464844 A 1.0001 1.0001 0 0 0 22 14 L 22 18.71875 C 21.072998 19.124065 20.24343 19.683821 19.541016 20.380859 C 18.04199 21.868411 17.091983 23.911084 16.673828 26.210938 L 16.115234 29.279297 C 15.135538 29.690916 14.388987 30.536931 14.119141 31.583984 C 13.524353 33.880347 15.305534 36 17.4375 36 L 19 36 L 20 36 C 23.301625 36 26 33.301625 26 30 L 26 25 C 26 22.411601 27.965341 20.374075 30.478516 20.103516 L 33.607422 25.578125 L 32.552734 26.105469 A 1.0001 1.0001 0 0 0 32 27 L 32 30.158203 C 30.964031 30.283039 28.951494 30.634444 27.292969 32.292969 A 1.0001 1.0001 0 1 0 28.707031 33.707031 C 30.05297 32.361092 33.076172 31.996094 33.076172 31.996094 A 1.0001 1.0001 0 0 0 34 31 L 34 27.617188 L 35.447266 26.894531 A 1.0001 1.0001 0 0 0 35.869141 25.503906 L 32 18.732422 L 32 14 A 1.0001 1.0001 0 0 0 30.15625 13.464844 C 30.15625 13.464844 29.8766 14 29 14 C 28.8059 14 28.564364 13.81673 28.322266 13.449219 C 28.080168 13.081708 27.953125 12.697266 27.953125 12.697266 A 1.0001 1.0001 0 0 0 26.962891 12 z M 27 14.925781 C 27.445121 15.462206 28.057597 16 29 16 C 29.437671 16 29.660223 15.779013 30 15.654297 L 30 18 L 25.511719 18 C 24.98936 18 24.487018 18.048241 24 18.128906 L 24 15.654297 C 24.339777 15.779013 24.562329 16 25 16 C 25.942403 16 26.554879 15.462206 27 14.925781 z M 25.511719 20 L 26.115234 20 C 24.813073 21.27253 24 23.043644 24 25 L 24 30 C 24 32.220375 22.220375 34 20 34 L 19 34 L 17.4375 34 C 16.695466 34 15.785429 33.123622 16.054688 32.083984 C 16.176924 31.609683 16.609683 31.176924 17.083984 31.054688 A 1.0001 1.0001 0 0 0 17.085938 31.054688 C 17.695418 30.897106 18.191073 30.993778 18.494141 31.183594 C 18.797208 31.373415 18.966797 31.614495 18.966797 32.107422 A 1.0001 1.0001 0 1 0 20.966797 32.107422 C 20.966797 31.003349 20.402323 30.01796 19.556641 29.488281 C 19.147243 29.231862 18.684807 29.076712 18.197266 29.011719 L 18.640625 26.568359 C 19.00047 24.589212 19.802744 22.93848 20.949219 21.800781 C 22.095693 20.663083 23.57511 20 25.511719 20 z M 30 23 A 1 1 0 0 0 29 24 A 1 1 0 0 0 30 25 A 1 1 0 0 0 31 24 A 1 1 0 0 0 30 23 z" stroke="#FF0000" stroke-width="0.1" fill="#000000"/>
</svg>